<?xml version="1.0" standalone="no"?><svg xmlns:xlink="http://www.w3.org/1999/xlink" xmlns="http://www.w3.org/2000/svg" viewBox="0 0 1000 250" preserveAspectRatio="xMaxYMax slice"><g transform="scale(0.7824726134585289)"><rect x="0" y="0" width="1278" height="319.5" fill="#ffffff"/><rect x="0" y="0" width="79.875" height="79.875" fill="#ffffff"/><polygon points="39.94,0 39.94,39.94 0,39.94" fill="#98d1f7"/><polygon points="39.94,0 79.88,0 39.94,39.94" fill="#98d1f7"/><polygon points="0,39.94 39.94,39.94 39.94,79.88" fill="#98d1f7"/><polygon points="79.88,39.94 79.88,79.88 39.94,79.88" fill="#98d1f7"/><rect x="79.875" y="0" width="79.875" height="79.875" fill="#ffffff"/><polygon points="79.88,0 119.82,0 119.82,39.94" fill="#12232E"/><polygon points="119.81,0 159.75,0 159.75,39.94" fill="#12232E"/><polygon points="79.88,39.94 119.82,39.94 79.88,79.88" fill="#12232E"/><polygon points="159.75,39.94 159.75,79.88 119.81,79.88" fill="#98d1f7"/><rect x="159.75" y="0" width="79.875" height="79.875" fill="#ffffff"/><polygon points="159.75,0 199.69,0 159.75,39.94" fill="#12232E"/><polygon points="239.63,0 239.63,39.94 199.69,39.94" fill="#12232E"/><polygon points="159.75,39.94 199.69,39.94 199.69,79.88" fill="#98d1f7"/><polygon points="239.63,39.94 239.63,79.88 199.69,79.88" fill="#12232E"/><rect x="239.625" y="0" width="79.875" height="79.875" fill="#ffffff"/><polygon points="239.63,0 279.57,0 239.63,39.94" fill="#12232E"/><polygon points="279.56,0 319.5,39.94 279.56,39.94" fill="#12232E"/><polygon points="239.63,39.94 279.57,39.94 239.63,79.88" fill="#12232E"/><polygon points="279.56,39.94 319.5,39.94 319.5,79.88" fill="#12232E"/><rect x="319.5" y="0" width="79.875" height="79.875" fill="#ffffff"/><polygon points="319.5,0 359.44,0 319.5,39.94" fill="#12232E"/><polygon points="359.44,0 399.38,0 359.44,39.94" fill="#98d1f7"/><polygon points="319.5,39.94 359.44,39.94 359.44,79.88" fill="#98d1f7"/><polygon points="359.44,39.94 399.38,39.94 399.38,79.88" fill="#12232E"/><rect x="399.375" y="0" width="79.875" height="79.875" fill="#ffffff"/><polygon points="399.38,0 439.32,0 399.38,39.94" fill="#12232E"/><polygon points="439.31,0 479.25,39.94 439.31,39.94" fill="#12232E"/><polygon points="439.32,39.94 439.32,79.88 399.38,79.88" fill="#98d1f7"/><polygon points="439.31,39.94 479.25,39.94 439.31,79.88" fill="#12232E"/><rect x="479.25" y="0" width="79.875" height="79.875" fill="#ffffff"/><polygon points="479.25,0 519.19,0 479.25,39.94" fill="#98d1f7"/><polygon points="559.1300000000001,0 559.1300000000001,39.94 519.19,39.94" fill="#98d1f7"/><polygon points="479.25,39.94 519.19,39.94 519.19,79.88" fill="#98d1f7"/><polygon points="519.19,39.94 559.1300000000001,39.94 559.1300000000001,79.88" fill="#12232E"/><rect x="559.125" y="0" width="79.875" height="79.875" fill="#ffffff"/><polygon points="559.13,0 599.0699999999999,39.94 559.13,39.94" fill="#98d1f7"/><polygon points="599.06,0 639,0 599.06,39.94" fill="#12232E"/><polygon points="559.13,39.94 599.0699999999999,39.94 559.13,79.88" fill="#12232E"/><polygon points="599.06,39.94 639,39.94 639,79.88" fill="#12232E"/><rect x="639" y="0" width="79.875" height="79.875" fill="#ffffff"/><polygon points="678.94,0 678.94,39.94 639,39.94" fill="#12232E"/><polygon points="678.94,0 718.8800000000001,0 678.94,39.94" fill="#98d1f7"/><polygon points="639,39.94 678.94,39.94 639,79.88" fill="#98d1f7"/><polygon points="678.94,39.94 718.8800000000001,79.88 678.94,79.88" fill="#98d1f7"/><rect x="718.875" y="0" width="79.875" height="79.875" fill="#ffffff"/><polygon points="718.88,0 758.8199999999999,0 718.88,39.94" fill="#98d1f7"/><polygon points="798.75,0 798.75,39.94 758.81,39.94" fill="#12232E"/><polygon points="718.88,39.94 758.8199999999999,39.94 718.88,79.88" fill="#12232E"/><polygon points="798.75,39.94 798.75,79.88 758.81,79.88" fill="#98d1f7"/><rect x="798.75" y="0" width="79.875" height="79.875" fill="#ffffff"/><polygon points="838.69,0 838.69,39.94 798.75,39.94" fill="#98d1f7"/><polygon points="878.6300000000001,0 878.6300000000001,39.94 838.69,39.94" fill="#98d1f7"/><polygon points="798.75,39.94 838.69,39.94 838.69,79.88" fill="#98d1f7"/><polygon points="838.69,39.94 878.6300000000001,39.94 878.6300000000001,79.88" fill="#12232E"/><rect x="878.625" y="0" width="79.875" height="79.875" fill="#ffffff"/><polygon points="878.63,0 918.5699999999999,39.94 878.63,39.94" fill="#98d1f7"/><polygon points="918.56,0 958.5,0 918.56,39.94" fill="#12232E"/><polygon points="918.5699999999999,39.94 918.5699999999999,79.88 878.63,79.88" fill="#98d1f7"/><polygon points="918.56,39.94 958.5,39.94 918.56,79.88" fill="#98d1f7"/><rect x="958.5" y="0" width="79.875" height="79.875" fill="#ffffff"/><polygon points="998.44,0 998.44,39.94 958.5,39.94" fill="#12232E"/><polygon points="998.44,0 1038.38,0 998.44,39.94" fill="#98d1f7"/><polygon points="998.44,39.94 998.44,79.88 958.5,79.88" fill="#98d1f7"/><polygon points="1038.38,39.94 1038.38,79.88 998.44,79.88" fill="#98d1f7"/><rect x="1038.375" y="0" width="79.875" height="79.875" fill="#ffffff"/><polygon points="1038.38,0 1078.3200000000002,0 1078.3200000000002,39.94" fill="#12232E"/><polygon points="1078.31,0 1118.25,0 1118.25,39.94" fill="#98d1f7"/><polygon points="1038.38,39.94 1078.3200000000002,39.94 1078.3200000000002,79.88" fill="#12232E"/><polygon points="1118.25,39.94 1118.25,79.88 1078.31,79.88" fill="#12232E"/><rect x="1118.25" y="0" width="79.875" height="79.875" fill="#ffffff"/><polygon points="1158.19,0 1158.19,39.94 1118.25,39.94" fill="#98d1f7"/><polygon points="1198.13,0 1198.13,39.94 1158.19,39.94" fill="#98d1f7"/><polygon points="1118.25,39.94 1158.19,79.88 1118.25,79.88" fill="#12232E"/><polygon points="1198.13,39.94 1198.13,79.88 1158.19,79.88" fill="#12232E"/><rect x="1198.125" y="0" width="79.875" height="79.875" fill="#ffffff"/><polygon points="1238.0700000000002,0 1238.0700000000002,39.94 1198.13,39.94" fill="#12232E"/><polygon points="1238.06,0 1278,0 1238.06,39.94" fill="#12232E"/><polygon points="1198.13,39.94 1238.0700000000002,79.88 1198.13,79.88" fill="#12232E"/><polygon points="1238.06,39.94 1278,39.94 1278,79.88" fill="#98d1f7"/><rect x="0" y="79.875" width="79.875" height="79.875" fill="#ffffff"/><polygon points="0,79.88 39.94,119.82 0,119.82" fill="#98d1f7"/><polygon points="79.88,79.88 79.88,119.82 39.94,119.82" fill="#98d1f7"/><polygon points="0,119.81 39.94,159.75 0,159.75" fill="#98d1f7"/><polygon points="39.94,119.81 79.88,119.81 39.94,159.75" fill="#12232E"/><rect x="79.875" y="79.875" width="79.875" height="79.875" fill="#ffffff"/><polygon points="79.88,79.88 119.82,79.88 119.82,119.82" fill="#12232E"/><polygon points="119.81,79.88 159.75,79.88 159.75,119.82" fill="#98d1f7"/><polygon points="79.88,119.81 119.82,119.81 119.82,159.75" fill="#98d1f7"/><polygon points="119.81,119.81 159.75,119.81 159.75,159.75" fill="#98d1f7"/><rect x="159.75" y="79.875" width="79.875" height="79.875" fill="#ffffff"/><polygon points="199.69,79.88 199.69,119.82 159.75,119.82" fill="#12232E"/><polygon points="199.69,79.88 239.63,79.88 239.63,119.82" fill="#12232E"/><polygon points="159.75,119.81 199.69,119.81 159.75,159.75" fill="#12232E"/><polygon points="199.69,119.81 239.63,119.81 239.63,159.75" fill="#12232E"/><rect x="239.625" y="79.875" width="79.875" height="79.875" fill="#ffffff"/><polygon points="279.57,79.88 279.57,119.82 239.63,119.82" fill="#12232E"/><polygon points="319.5,79.88 319.5,119.82 279.56,119.82" fill="#12232E"/><polygon points="239.63,119.81 279.57,119.81 279.57,159.75" fill="#98d1f7"/><polygon points="279.56,119.81 319.5,119.81 319.5,159.75" fill="#98d1f7"/><rect x="319.5" y="79.875" width="79.875" height="79.875" fill="#ffffff"/><polygon points="319.5,79.88 359.44,79.88 319.5,119.82" fill="#12232E"/><polygon points="359.44,79.88 399.38,79.88 399.38,119.82" fill="#12232E"/><polygon points="319.5,119.81 359.44,119.81 359.44,159.75" fill="#12232E"/><polygon points="359.44,119.81 399.38,159.75 359.44,159.75" fill="#98d1f7"/><rect x="399.375" y="79.875" width="79.875" height="79.875" fill="#ffffff"/><polygon points="399.38,79.88 439.32,79.88 439.32,119.82" fill="#98d1f7"/><polygon points="439.31,79.88 479.25,119.82 439.31,119.82" fill="#12232E"/><polygon points="399.38,119.81 439.32,119.81 399.38,159.75" fill="#12232E"/><polygon points="479.25,119.81 479.25,159.75 439.31,159.75" fill="#12232E"/><rect x="479.25" y="79.875" width="79.875" height="79.875" fill="#ffffff"/><polygon points="519.19,79.88 519.19,119.82 479.25,119.82" fill="#12232E"/><polygon points="519.19,79.88 559.1300000000001,79.88 519.19,119.82" fill="#98d1f7"/><polygon points="519.19,119.81 519.19,159.75 479.25,159.75" fill="#12232E"/><polygon points="559.1300000000001,119.81 559.1300000000001,159.75 519.19,159.75" fill="#98d1f7"/><rect x="559.125" y="79.875" width="79.875" height="79.875" fill="#ffffff"/><polygon points="599.0699999999999,79.88 599.0699999999999,119.82 559.13,119.82" fill="#98d1f7"/><polygon points="599.06,79.88 639,119.82 599.06,119.82" fill="#12232E"/><polygon points="559.13,119.81 599.0699999999999,119.81 559.13,159.75" fill="#12232E"/><polygon points="599.06,119.81 639,119.81 639,159.75" fill="#12232E"/><rect x="639" y="79.875" width="79.875" height="79.875" fill="#ffffff"/><polygon points="678.94,79.88 678.94,119.82 639,119.82" fill="#12232E"/><polygon points="718.8800000000001,79.88 718.8800000000001,119.82 678.94,119.82" fill="#12232E"/><polygon points="639,119.81 678.94,119.81 639,159.75" fill="#12232E"/><polygon points="678.94,119.81 718.8800000000001,119.81 678.94,159.75" fill="#12232E"/><rect x="718.875" y="79.875" width="79.875" height="79.875" fill="#ffffff"/><polygon points="758.8199999999999,79.88 758.8199999999999,119.82 718.88,119.82" fill="#98d1f7"/><polygon points="758.81,79.88 798.75,119.82 758.81,119.82" fill="#12232E"/><polygon points="758.8199999999999,119.81 758.8199999999999,159.75 718.88,159.75" fill="#98d1f7"/><polygon points="758.81,119.81 798.75,119.81 798.75,159.75" fill="#12232E"/><rect x="798.75" y="79.875" width="79.875" height="79.875" fill="#ffffff"/><polygon points="798.75,79.88 838.69,119.82 798.75,119.82" fill="#12232E"/><polygon points="838.69,79.88 878.6300000000001,79.88 838.69,119.82" fill="#98d1f7"/><polygon points="798.75,119.81 838.69,119.81 838.69,159.75" fill="#12232E"/><polygon points="838.69,119.81 878.6300000000001,119.81 878.6300000000001,159.75" fill="#12232E"/><rect x="878.625" y="79.875" width="79.875" height="79.875" fill="#ffffff"/><polygon points="878.63,79.88 918.5699999999999,79.88 878.63,119.82" fill="#98d1f7"/><polygon points="918.56,79.88 958.5,119.82 918.56,119.82" fill="#12232E"/><polygon points="878.63,119.81 918.5699999999999,119.81 878.63,159.75" fill="#12232E"/><polygon points="918.56,119.81 958.5,119.81 918.56,159.75" fill="#12232E"/><rect x="958.5" y="79.875" width="79.875" height="79.875" fill="#ffffff"/><polygon points="998.44,79.88 998.44,119.82 958.5,119.82" fill="#12232E"/><polygon points="1038.38,79.88 1038.38,119.82 998.44,119.82" fill="#98d1f7"/><polygon points="958.5,119.81 998.44,159.75 958.5,159.75" fill="#12232E"/><polygon points="998.44,119.81 1038.38,159.75 998.44,159.75" fill="#98d1f7"/><rect x="1038.375" y="79.875" width="79.875" height="79.875" fill="#ffffff"/><polygon points="1038.38,79.88 1078.3200000000002,79.88 1078.3200000000002,119.82" fill="#12232E"/><polygon points="1118.25,79.88 1118.25,119.82 1078.31,119.82" fill="#98d1f7"/><polygon points="1038.38,119.81 1078.3200000000002,119.81 1078.3200000000002,159.75" fill="#98d1f7"/><polygon points="1078.31,119.81 1118.25,119.81 1118.25,159.75" fill="#98d1f7"/><rect x="1118.25" y="79.875" width="79.875" height="79.875" fill="#ffffff"/><polygon points="1118.25,79.88 1158.19,119.82 1118.25,119.82" fill="#12232E"/><polygon points="1198.13,79.88 1198.13,119.82 1158.19,119.82" fill="#98d1f7"/><polygon points="1118.25,119.81 1158.19,119.81 1158.19,159.75" fill="#12232E"/><polygon points="1198.13,119.81 1198.13,159.75 1158.19,159.75" fill="#12232E"/><rect x="1198.125" y="79.875" width="79.875" height="79.875" fill="#ffffff"/><polygon points="1198.13,79.88 1238.0700000000002,79.88 1198.13,119.82" fill="#98d1f7"/><polygon points="1238.06,79.88 1278,79.88 1238.06,119.82" fill="#98d1f7"/><polygon points="1198.13,119.81 1238.0700000000002,119.81 1198.13,159.75" fill="#12232E"/><polygon points="1278,119.81 1278,159.75 1238.06,159.75" fill="#98d1f7"/><rect x="0" y="159.75" width="79.875" height="79.875" fill="#ffffff"/><polygon points="39.94,159.75 39.94,199.69 0,199.69" fill="#98d1f7"/><polygon points="39.94,159.75 79.88,199.69 39.94,199.69" fill="#98d1f7"/><polygon points="39.94,199.69 39.94,239.63 0,239.63" fill="#98d1f7"/><polygon points="39.94,199.69 79.88,199.69 79.88,239.63" fill="#98d1f7"/><rect x="79.875" y="159.75" width="79.875" height="79.875" fill="#ffffff"/><polygon points="79.88,159.75 119.82,199.69 79.88,199.69" fill="#98d1f7"/><polygon points="119.81,159.75 159.75,199.69 119.81,199.69" fill="#12232E"/><polygon points="79.88,199.69 119.82,199.69 119.82,239.63" fill="#12232E"/><polygon points="119.81,199.69 159.75,239.63 119.81,239.63" fill="#12232E"/><rect x="159.75" y="159.75" width="79.875" height="79.875" fill="#ffffff"/><polygon points="159.75,159.75 199.69,199.69 159.75,199.69" fill="#12232E"/><polygon points="239.63,159.75 239.63,199.69 199.69,199.69" fill="#98d1f7"/><polygon points="159.75,199.69 199.69,239.63 159.75,239.63" fill="#98d1f7"/><polygon points="199.69,199.69 239.63,199.69 239.63,239.63" fill="#12232E"/><rect x="239.625" y="159.75" width="79.875" height="79.875" fill="#ffffff"/><polygon points="239.63,159.75 279.57,199.69 239.63,199.69" fill="#12232E"/><polygon points="279.56,159.75 319.5,199.69 279.56,199.69" fill="#12232E"/><polygon points="239.63,199.69 279.57,199.69 239.63,239.63" fill="#12232E"/><polygon points="279.56,199.69 319.5,199.69 319.5,239.63" fill="#12232E"/><rect x="319.5" y="159.75" width="79.875" height="79.875" fill="#ffffff"/><polygon points="359.44,159.75 359.44,199.69 319.5,199.69" fill="#12232E"/><polygon points="359.44,159.75 399.38,159.75 399.38,199.69" fill="#12232E"/><polygon points="319.5,199.69 359.44,199.69 319.5,239.63" fill="#98d1f7"/><polygon points="359.44,199.69 399.38,199.69 399.38,239.63" fill="#98d1f7"/><rect x="399.375" y="159.75" width="79.875" height="79.875" fill="#ffffff"/><polygon points="439.32,159.75 439.32,199.69 399.38,199.69" fill="#12232E"/><polygon points="439.31,159.75 479.25,159.75 479.25,199.69" fill="#12232E"/><polygon points="439.32,199.69 439.32,239.63 399.38,239.63" fill="#98d1f7"/><polygon points="479.25,199.69 479.25,239.63 439.31,239.63" fill="#98d1f7"/><rect x="479.25" y="159.75" width="79.875" height="79.875" fill="#ffffff"/><polygon points="479.25,159.75 519.19,159.75 519.19,199.69" fill="#98d1f7"/><polygon points="519.19,159.75 559.1300000000001,199.69 519.19,199.69" fill="#98d1f7"/><polygon points="479.25,199.69 519.19,199.69 479.25,239.63" fill="#12232E"/><polygon points="559.1300000000001,199.69 559.1300000000001,239.63 519.19,239.63" fill="#12232E"/><rect x="559.125" y="159.75" width="79.875" height="79.875" fill="#ffffff"/><polygon points="559.13,159.75 599.0699999999999,159.75 599.0699999999999,199.69" fill="#98d1f7"/><polygon points="599.06,159.75 639,159.75 639,199.69" fill="#98d1f7"/><polygon points="559.13,199.69 599.0699999999999,239.63 559.13,239.63" fill="#12232E"/><polygon points="639,199.69 639,239.63 599.06,239.63" fill="#98d1f7"/><rect x="639" y="159.75" width="79.875" height="79.875" fill="#ffffff"/><polygon points="639,159.75 678.94,159.75 639,199.69" fill="#12232E"/><polygon points="678.94,159.75 718.8800000000001,159.75 678.94,199.69" fill="#98d1f7"/><polygon points="639,199.69 678.94,199.69 678.94,239.63" fill="#12232E"/><polygon points="678.94,199.69 718.8800000000001,199.69 678.94,239.63" fill="#98d1f7"/><rect x="718.875" y="159.75" width="79.875" height="79.875" fill="#ffffff"/><polygon points="758.8199999999999,159.75 758.8199999999999,199.69 718.88,199.69" fill="#12232E"/><polygon points="758.81,159.75 798.75,159.75 758.81,199.69" fill="#98d1f7"/><polygon points="758.8199999999999,199.69 758.8199999999999,239.63 718.88,239.63" fill="#98d1f7"/><polygon points="758.81,199.69 798.75,239.63 758.81,239.63" fill="#12232E"/><rect x="798.75" y="159.75" width="79.875" height="79.875" fill="#ffffff"/><polygon points="798.75,159.75 838.69,159.75 798.75,199.69" fill="#12232E"/><polygon points="838.69,159.75 878.6300000000001,199.69 838.69,199.69" fill="#12232E"/><polygon points="838.69,199.69 838.69,239.63 798.75,239.63" fill="#98d1f7"/><polygon points="838.69,199.69 878.6300000000001,199.69 838.69,239.63" fill="#98d1f7"/><rect x="878.625" y="159.75" width="79.875" height="79.875" fill="#ffffff"/><polygon points="878.63,159.75 918.5699999999999,159.75 918.5699999999999,199.69" fill="#12232E"/><polygon points="918.56,159.75 958.5,159.75 918.56,199.69" fill="#98d1f7"/><polygon points="918.5699999999999,199.69 918.5699999999999,239.63 878.63,239.63" fill="#98d1f7"/><polygon points="918.56,199.69 958.5,239.63 918.56,239.63" fill="#98d1f7"/><rect x="958.5" y="159.75" width="79.875" height="79.875" fill="#ffffff"/><polygon points="998.44,159.75 998.44,199.69 958.5,199.69" fill="#98d1f7"/><polygon points="998.44,159.75 1038.38,199.69 998.44,199.69" fill="#98d1f7"/><polygon points="958.5,199.69 998.44,199.69 958.5,239.63" fill="#98d1f7"/><polygon points="1038.38,199.69 1038.38,239.63 998.44,239.63" fill="#98d1f7"/><rect x="1038.375" y="159.75" width="79.875" height="79.875" fill="#ffffff"/><polygon points="1038.38,159.75 1078.3200000000002,199.69 1038.38,199.69" fill="#12232E"/><polygon points="1078.31,159.75 1118.25,199.69 1078.31,199.69" fill="#98d1f7"/><polygon points="1038.38,199.69 1078.3200000000002,199.69 1038.38,239.63" fill="#12232E"/><polygon points="1078.31,199.69 1118.25,239.63 1078.31,239.63" fill="#12232E"/><rect x="1118.25" y="159.75" width="79.875" height="79.875" fill="#ffffff"/><polygon points="1118.25,159.75 1158.19,159.75 1118.25,199.69" fill="#12232E"/><polygon points="1158.19,159.75 1198.13,159.75 1158.19,199.69" fill="#12232E"/><polygon points="1118.25,199.69 1158.19,199.69 1158.19,239.63" fill="#98d1f7"/><polygon points="1158.19,199.69 1198.13,199.69 1198.13,239.63" fill="#98d1f7"/><rect x="1198.125" y="159.75" width="79.875" height="79.875" fill="#ffffff"/><polygon points="1238.0700000000002,159.75 1238.0700000000002,199.69 1198.13,199.69" fill="#98d1f7"/><polygon points="1238.06,159.75 1278,199.69 1238.06,199.69" fill="#12232E"/><polygon points="1238.0700000000002,199.69 1238.0700000000002,239.63 1198.13,239.63" fill="#98d1f7"/><polygon points="1238.06,199.69 1278,199.69 1238.06,239.63" fill="#98d1f7"/><rect x="0" y="239.625" width="79.875" height="79.875" fill="#ffffff"/><polygon points="0,239.63 39.94,279.57 0,279.57" fill="#12232E"/><polygon points="39.94,239.63 79.88,239.63 39.94,279.57" fill="#98d1f7"/><polygon points="39.94,279.56 39.94,319.5 0,319.5" fill="#12232E"/><polygon points="39.94,279.56 79.88,319.5 39.94,319.5" fill="#12232E"/><rect x="79.875" y="239.625" width="79.875" height="79.875" fill="#ffffff"/><polygon points="79.88,239.63 119.82,239.63 119.82,279.57" fill="#98d1f7"/><polygon points="119.81,239.63 159.75,239.63 119.81,279.57" fill="#12232E"/><polygon points="79.88,279.56 119.82,319.5 79.88,319.5" fill="#12232E"/><polygon points="119.81,279.56 159.75,279.56 119.81,319.5" fill="#98d1f7"/><rect x="159.75" y="239.625" width="79.875" height="79.875" fill="#ffffff"/><polygon points="199.69,239.63 199.69,279.57 159.75,279.57" fill="#12232E"/><polygon points="239.63,239.63 239.63,279.57 199.69,279.57" fill="#98d1f7"/><polygon points="159.75,279.56 199.69,279.56 199.69,319.5" fill="#98d1f7"/><polygon points="199.69,279.56 239.63,319.5 199.69,319.5" fill="#98d1f7"/><rect x="239.625" y="239.625" width="79.875" height="79.875" fill="#ffffff"/><polygon points="239.63,239.63 279.57,279.57 239.63,279.57" fill="#12232E"/><polygon points="279.56,239.63 319.5,239.63 279.56,279.57" fill="#12232E"/><polygon points="239.63,279.56 279.57,279.56 279.57,319.5" fill="#12232E"/><polygon points="279.56,279.56 319.5,279.56 279.56,319.5" fill="#98d1f7"/><rect x="319.5" y="239.625" width="79.875" height="79.875" fill="#ffffff"/><polygon points="319.5,239.63 359.44,239.63 359.44,279.57" fill="#98d1f7"/><polygon points="399.38,239.63 399.38,279.57 359.44,279.57" fill="#12232E"/><polygon points="319.5,279.56 359.44,319.5 319.5,319.5" fill="#12232E"/><polygon points="359.44,279.56 399.38,279.56 359.44,319.5" fill="#98d1f7"/><rect x="399.375" y="239.625" width="79.875" height="79.875" fill="#ffffff"/><polygon points="399.38,239.63 439.32,239.63 399.38,279.57" fill="#98d1f7"/><polygon points="439.31,239.63 479.25,239.63 479.25,279.57" fill="#98d1f7"/><polygon points="399.38,279.56 439.32,279.56 439.32,319.5" fill="#98d1f7"/><polygon points="439.31,279.56 479.25,319.5 439.31,319.5" fill="#12232E"/><rect x="479.25" y="239.625" width="79.875" height="79.875" fill="#ffffff"/><polygon points="479.25,239.63 519.19,279.57 479.25,279.57" fill="#12232E"/><polygon points="519.19,239.63 559.1300000000001,239.63 559.1300000000001,279.57" fill="#12232E"/><polygon points="479.25,279.56 519.19,279.56 519.19,319.5" fill="#98d1f7"/><polygon points="519.19,279.56 559.1300000000001,319.5 519.19,319.5" fill="#12232E"/><rect x="559.125" y="239.625" width="79.875" height="79.875" fill="#ffffff"/><polygon points="559.13,239.63 599.0699999999999,239.63 599.0699999999999,279.57" fill="#12232E"/><polygon points="599.06,239.63 639,279.57 599.06,279.57" fill="#12232E"/><polygon points="559.13,279.56 599.0699999999999,279.56 559.13,319.5" fill="#12232E"/><polygon points="599.06,279.56 639,319.5 599.06,319.5" fill="#12232E"/><rect x="639" y="239.625" width="79.875" height="79.875" fill="#ffffff"/><polygon points="639,239.63 678.94,279.57 639,279.57" fill="#98d1f7"/><polygon points="678.94,239.63 718.8800000000001,239.63 678.94,279.57" fill="#98d1f7"/><polygon points="639,279.56 678.94,319.5 639,319.5" fill="#98d1f7"/><polygon points="678.94,279.56 718.8800000000001,279.56 718.8800000000001,319.5" fill="#12232E"/><rect x="718.875" y="239.625" width="79.875" height="79.875" fill="#ffffff"/><polygon points="718.88,239.63 758.8199999999999,239.63 758.8199999999999,279.57" fill="#12232E"/><polygon points="758.81,239.63 798.75,279.57 758.81,279.57" fill="#98d1f7"/><polygon points="718.88,279.56 758.8199999999999,319.5 718.88,319.5" fill="#12232E"/><polygon points="798.75,279.56 798.75,319.5 758.81,319.5" fill="#98d1f7"/><rect x="798.75" y="239.625" width="79.875" height="79.875" fill="#ffffff"/><polygon points="838.69,239.63 838.69,279.57 798.75,279.57" fill="#98d1f7"/><polygon points="838.69,239.63 878.6300000000001,279.57 838.69,279.57" fill="#12232E"/><polygon points="798.75,279.56 838.69,279.56 838.69,319.5" fill="#12232E"/><polygon points="838.69,279.56 878.6300000000001,279.56 838.69,319.5" fill="#12232E"/><rect x="878.625" y="239.625" width="79.875" height="79.875" fill="#ffffff"/><polygon points="878.63,239.63 918.5699999999999,239.63 918.5699999999999,279.57" fill="#12232E"/><polygon points="958.5,239.63 958.5,279.57 918.56,279.57" fill="#12232E"/><polygon points="878.63,279.56 918.5699999999999,319.5 878.63,319.5" fill="#12232E"/><polygon points="918.56,279.56 958.5,279.56 958.5,319.5" fill="#98d1f7"/><rect x="958.5" y="239.625" width="79.875" height="79.875" fill="#ffffff"/><polygon points="998.44,239.63 998.44,279.57 958.5,279.57" fill="#12232E"/><polygon points="998.44,239.63 1038.38,279.57 998.44,279.57" fill="#98d1f7"/><polygon points="958.5,279.56 998.44,279.56 958.5,319.5" fill="#12232E"/><polygon points="1038.38,279.56 1038.38,319.5 998.44,319.5" fill="#12232E"/><rect x="1038.375" y="239.625" width="79.875" height="79.875" fill="#ffffff"/><polygon points="1038.38,239.63 1078.3200000000002,239.63 1038.38,279.57" fill="#12232E"/><polygon points="1078.31,239.63 1118.25,239.63 1118.25,279.57" fill="#12232E"/><polygon points="1038.38,279.56 1078.3200000000002,279.56 1078.3200000000002,319.5" fill="#98d1f7"/><polygon points="1078.31,279.56 1118.25,319.5 1078.31,319.5" fill="#12232E"/><rect x="1118.25" y="239.625" width="79.875" height="79.875" fill="#ffffff"/><polygon points="1118.25,239.63 1158.19,239.63 1118.25,279.57" fill="#98d1f7"/><polygon points="1158.19,239.63 1198.13,239.63 1198.13,279.57" fill="#98d1f7"/><polygon points="1118.25,279.56 1158.19,279.56 1118.25,319.5" fill="#98d1f7"/><polygon points="1198.13,279.56 1198.13,319.5 1158.19,319.5" fill="#12232E"/><rect x="1198.125" y="239.625" width="79.875" height="79.875" fill="#ffffff"/><polygon points="1198.13,239.63 1238.0700000000002,279.57 1198.13,279.57" fill="#12232E"/><polygon points="1238.06,239.63 1278,279.57 1238.06,279.57" fill="#98d1f7"/><polygon points="1198.13,279.56 1238.0700000000002,319.5 1198.13,319.5" fill="#98d1f7"/><polygon points="1238.06,279.56 1278,279.56 1278,319.5" fill="#12232E"/></g></svg>